<svg width="24" height="24" viewBox="0 0 24 24" fill="none" xmlns="http://www.w3.org/2000/svg">
<path d="M21.3113 9.14258C20.7416 8.78035 20.0296 8.51695 19.2454 8.37215C19.1132 8.34684 18.9914 8.28332 18.895 8.18945C18.7987 8.09558 18.7319 7.97549 18.7031 7.84406C18.3654 6.36121 17.6461 5.08848 16.5912 4.12383C15.358 2.9959 13.7278 2.375 12 2.375C10.4811 2.375 9.07812 2.85109 7.94504 3.75C7.17977 4.36014 6.56336 5.13642 6.1425 6.02004C6.09568 6.11968 6.02569 6.20666 5.93838 6.27371C5.85107 6.34077 5.74897 6.38595 5.64062 6.40547C4.47488 6.61602 3.46941 7.03625 2.70113 7.63867C1.58867 8.51223 1 9.74672 1 11.2094C1 14.1055 3.40324 16.125 6.84375 16.125H11.3125V10.6443C11.3125 10.2744 11.597 9.95684 11.9669 9.93836C12.0599 9.93388 12.1528 9.94832 12.24 9.98081C12.3272 10.0133 12.4069 10.0631 12.4743 10.1273C12.5416 10.1915 12.5953 10.2688 12.6319 10.3543C12.6686 10.4398 12.6875 10.5319 12.6875 10.625V16.125H18.0156C21.1369 16.125 23 14.6537 23 12.1891C23 10.8979 22.4161 9.84426 21.3113 9.14258ZM11.3125 19.2798L9.73555 17.7054C9.60586 17.5797 9.43192 17.5101 9.25132 17.5116C9.07073 17.5131 8.89798 17.5856 8.77042 17.7135C8.64286 17.8413 8.57072 18.0142 8.56961 18.1948C8.56849 18.3754 8.63848 18.5492 8.76445 18.6786L11.5145 21.4239C11.6433 21.5525 11.818 21.6247 12 21.6247C12.182 21.6247 12.3567 21.5525 12.4855 21.4239L15.2355 18.6786C15.3615 18.5492 15.4315 18.3754 15.4304 18.1948C15.4293 18.0142 15.3571 17.8413 15.2296 17.7135C15.102 17.5856 14.9293 17.5131 14.7487 17.5116C14.5681 17.5101 14.3941 17.5797 14.2645 17.7054L12.6875 19.2798V16.125H11.3125V19.2798Z" fill="#1D1D1F"/>
</svg>
