<svg width="23" height="23" viewBox="0 0 23 23" fill="none" xmlns="http://www.w3.org/2000/svg">
<path d="M2.16389 5.09164C1.94271 5.21754 1.75891 5.39991 1.63129 5.62011C1.50367 5.84031 1.43679 6.09045 1.43751 6.34496V19.676C1.4367 19.9243 1.50027 20.1687 1.62201 20.3852C1.74375 20.6017 1.9195 20.7829 2.13214 20.9113C2.34478 21.0397 2.58705 21.1107 2.83533 21.1176C3.08362 21.1244 3.32944 21.0668 3.54884 20.9504C3.56815 20.9401 3.58702 20.9293 3.60544 20.9172L7.38516 18.4442C7.43536 18.4115 7.47657 18.3667 7.50505 18.314C7.53353 18.2613 7.54837 18.2023 7.54823 18.1423V2.08681C7.54841 2.02135 7.53071 1.95708 7.49704 1.90094C7.46336 1.8448 7.41499 1.79892 7.35714 1.76827C7.2993 1.73761 7.23418 1.72334 7.16882 1.72699C7.10345 1.73064 7.04033 1.75207 6.98626 1.78898L2.16389 5.09164ZM9.53962 1.76607C9.48543 1.73085 9.42275 1.71089 9.35818 1.7083C9.2936 1.7057 9.22953 1.72057 9.17269 1.75133C9.11586 1.7821 9.06837 1.82762 9.03523 1.8831C9.00209 1.93858 8.98452 2.00197 8.98438 2.0666V18.1289C8.98424 18.1888 8.99908 18.2478 9.02756 18.3005C9.05604 18.3532 9.09726 18.398 9.14745 18.4307L13.4599 21.2348C13.5142 21.2701 13.5769 21.2902 13.6416 21.2928C13.7063 21.2955 13.7705 21.2806 13.8274 21.2497C13.8843 21.2189 13.9319 21.1733 13.965 21.1177C13.9981 21.062 14.0156 20.9985 14.0156 20.9338V4.88185C14.0158 4.82181 14.0009 4.76268 13.9724 4.70987C13.9438 4.65706 13.9025 4.61225 13.8521 4.57953L9.53962 1.76607ZM20.8676 2.08771C20.6557 1.95806 20.4136 1.88618 20.1653 1.87925C19.917 1.87231 19.6713 1.93056 19.4525 2.04818C19.4332 2.05812 19.4144 2.06922 19.3964 2.08142L15.6162 4.55213C15.566 4.58486 15.5248 4.62962 15.4963 4.68235C15.4678 4.73507 15.453 4.79408 15.4531 4.854V20.9118C15.4529 20.9773 15.4706 21.0417 15.5043 21.0979C15.538 21.1541 15.5864 21.2 15.6443 21.2307C15.7022 21.2614 15.7674 21.2756 15.8329 21.2719C15.8983 21.2682 15.9615 21.2466 16.0156 21.2096L20.8253 17.9096C21.0492 17.7848 21.2356 17.6023 21.3652 17.3811C21.4948 17.16 21.5629 16.9082 21.5625 16.6518V3.35496C21.5655 3.10179 21.5031 2.85214 21.3813 2.63015C21.2596 2.40815 21.0826 2.22132 20.8676 2.08771Z" fill="#5F8C92"/>
</svg>
