<svg width="12" height="12" viewBox="0 0 12 12" fill="none" xmlns="http://www.w3.org/2000/svg">
<path d="M5.67064 1.44619C5.6135 0.656116 6.21534 -0.0482361 6.99648 0.0833257C7.63409 0.190714 8.25328 0.400985 8.82903 0.708822C9.82898 1.24346 10.657 2.05051 11.217 3.03643C11.7771 4.02236 12.0463 5.14681 11.9935 6.27948C11.9407 7.41215 11.568 8.50666 10.9186 9.4362C10.2692 10.3657 9.36972 11.0922 8.32437 11.5315C7.27901 11.9708 6.13058 12.1048 5.01215 11.9181C3.89373 11.7314 2.8511 11.2316 2.00508 10.4767C1.51796 10.042 1.1075 9.53292 0.78731 8.97117C0.395042 8.28298 0.849348 7.47555 1.61086 7.2574C2.37237 7.03924 3.14893 7.51809 3.68134 8.10464C3.7549 8.18568 3.83289 8.26306 3.91505 8.33638C4.35659 8.7304 4.90074 8.99124 5.48444 9.08867C6.06815 9.1861 6.66752 9.11614 7.21309 8.88688C7.75866 8.65763 8.2281 8.27847 8.56702 7.79335C8.90593 7.30823 9.10044 6.737 9.128 6.14586C9.15557 5.55472 9.01506 4.96787 8.72276 4.45331C8.43047 3.93876 7.99834 3.51756 7.47647 3.23853C7.37936 3.18661 7.27988 3.14 7.17847 3.09881C6.44457 2.8007 5.72778 2.23627 5.67064 1.44619Z" fill="#BABAC5"/>
</svg>
