<svg width="28" height="28" viewBox="0 0 28 28" fill="none" xmlns="http://www.w3.org/2000/svg">
<g filter="url(#filter0_d_698_102)">
<path d="M15.3572 14.3359L13.2417 8.83608C13.2099 8.75355 13.1539 8.68257 13.081 8.63251C13.0081 8.58245 12.9218 8.55565 12.8333 8.55565C12.7449 8.55565 12.6585 8.58245 12.5857 8.63251C12.5128 8.68257 12.4567 8.75355 12.425 8.83608L10.3094 14.3359C10.2875 14.3931 10.2537 14.445 10.2105 14.4883C10.1672 14.5316 10.1153 14.5653 10.0581 14.5873L4.55826 16.7028C4.47573 16.7346 4.40475 16.7906 4.35469 16.8635C4.30463 16.9364 4.27783 17.0227 4.27783 17.1112C4.27783 17.1996 4.30463 17.2859 4.35469 17.3588C4.40475 17.4317 4.47573 17.4877 4.55826 17.5195L10.0581 19.635C10.1153 19.657 10.1672 19.6907 10.2105 19.734C10.2537 19.7773 10.2875 19.8292 10.3094 19.8864L12.425 25.3862C12.4567 25.4688 12.5128 25.5397 12.5857 25.5898C12.6585 25.6399 12.7449 25.6667 12.8333 25.6667C12.9218 25.6667 13.0081 25.6399 13.081 25.5898C13.1539 25.5397 13.2099 25.4688 13.2417 25.3862L15.3572 19.8864C15.3792 19.8292 15.4129 19.7773 15.4562 19.734C15.4995 19.6907 15.5514 19.657 15.6085 19.635L21.1084 17.5195C21.1909 17.4877 21.2619 17.4317 21.312 17.3588C21.362 17.2859 21.3888 17.1996 21.3888 17.1112C21.3888 17.0227 21.362 16.9364 21.312 16.8635C21.2619 16.7906 21.1909 16.7346 21.1084 16.7028L15.6085 14.5873C15.5514 14.5653 15.4995 14.5316 15.4562 14.4883C15.4129 14.445 15.3792 14.3931 15.3572 14.3359ZM8.13815 4.92497C8.03251 4.88434 7.94903 4.80086 7.9084 4.69522L7.37334 3.30405C7.24185 2.96218 6.75815 2.96218 6.62666 3.30405L6.0916 4.69522C6.05097 4.80086 5.96749 4.88434 5.86185 4.92497L4.47068 5.46004C4.1288 5.59153 4.1288 6.07522 4.47068 6.20671L5.86185 6.74178C5.96749 6.78241 6.05097 6.86589 6.0916 6.97152L6.62666 8.36269C6.75815 8.70457 7.24185 8.70457 7.37334 8.36269L7.9084 6.97152C7.94903 6.86589 8.03251 6.78241 8.13815 6.74178L9.52932 6.20671C9.8712 6.07522 9.8712 5.59153 9.52932 5.46004L8.13815 4.92497ZM23.629 7.32296C23.5234 7.28233 23.4399 7.19886 23.3993 7.09324L22.54 4.85942C22.4085 4.51757 21.9248 4.51757 21.7933 4.85942L20.934 7.09324C20.8934 7.19886 20.8099 7.28233 20.7043 7.32296L18.4705 8.18227C18.1286 8.31377 18.1286 8.79742 18.4705 8.92893L20.7043 9.78824C20.8099 9.82887 20.8934 9.91233 20.934 10.018L21.7933 12.2518C21.9248 12.5936 22.4085 12.5936 22.54 12.2518L23.3993 10.018C23.4399 9.91233 23.5234 9.82887 23.629 9.78824L25.8628 8.92893C26.2047 8.79742 26.2047 8.31377 25.8628 8.18227L23.629 7.32296Z" fill="url(#paint0_linear_698_102)"/>
</g>
<defs>
<filter id="filter0_d_698_102" x="-25.7852" y="-22.9524" width="81.9043" height="82.619" filterUnits="userSpaceOnUse" color-interpolation-filters="sRGB">
<feFlood flood-opacity="0" result="BackgroundImageFix"/>
<feColorMatrix in="SourceAlpha" type="matrix" values="0 0 0 0 0 0 0 0 0 0 0 0 0 0 0 0 0 0 127 0" result="hardAlpha"/>
<feOffset dy="4"/>
<feGaussianBlur stdDeviation="15"/>
<feComposite in2="hardAlpha" operator="out"/>
<feColorMatrix type="matrix" values="0 0 0 0 0 0 0 0 0 0 0 0 0 0 0 0 0 0 0.05 0"/>
<feBlend mode="normal" in2="BackgroundImageFix" result="effect1_dropShadow_698_102"/>
<feBlend mode="normal" in="SourceGraphic" in2="effect1_dropShadow_698_102" result="shape"/>
</filter>
<linearGradient id="paint0_linear_698_102" x1="26.8333" y1="2.33337" x2="3.50005" y2="25.6667" gradientUnits="userSpaceOnUse">
<stop offset="0.19053" stop-color="#C59F81"/>
<stop offset="0.790369" stop-color="#A87FBE"/>
</linearGradient>
</defs>
</svg>
