<svg width="24" height="20" viewBox="0 0 24 20" fill="none" xmlns="http://www.w3.org/2000/svg">
<path d="M11.8952 19.5596C11.6581 19.5236 11.4297 19.3613 11.325 19.1543C11.2282 18.9628 11.236 19.4377 11.236 13.7785V8.64517L10.3509 9.5278L9.46583 10.4104L9.33395 10.4752C9.20702 10.5375 9.19605 10.5402 9.04196 10.5454C8.91124 10.5499 8.86329 10.5453 8.78068 10.5202C8.54205 10.4477 8.34598 10.2533 8.27282 10.0165C8.23829 9.90479 8.23406 9.70373 8.26389 9.5922C8.31498 9.40124 8.26525 9.455 9.95936 7.75934C11.2336 6.48392 11.5702 6.15475 11.6356 6.11999C11.8606 6.00049 12.1373 6.00049 12.3623 6.11999C12.4804 6.18278 15.615 9.3191 15.6697 9.42926C15.7911 9.67402 15.7832 9.97144 15.6496 10.1847C15.5487 10.3457 15.3922 10.467 15.2164 10.5204C15.1316 10.5462 15.0875 10.5503 14.9533 10.5447C14.7994 10.5384 14.7861 10.5352 14.662 10.4743L14.532 10.4104L13.6469 9.5278L12.7618 8.64517V13.7657C12.7618 17.4371 12.7572 18.9084 12.7455 18.9647C12.6941 19.2122 12.5017 19.4277 12.2511 19.5187C12.1583 19.5524 11.9815 19.5727 11.8952 19.5596ZM5.86616 15.782C5.05728 15.715 4.41177 15.5712 3.74443 15.3095C3.13281 15.0697 2.56653 14.7444 2.06651 14.3457C1.83132 14.1582 1.36705 13.6992 1.19811 13.4873C0.517282 12.633 0.133174 11.6891 0.0200049 10.5921C-0.0181069 10.2227 -0.000249449 9.60506 0.0606932 9.18483C0.359993 7.12102 1.85675 5.46558 4.11818 4.69719C4.47004 4.57763 4.73717 4.50658 5.14522 4.424L5.4464 4.36305L5.54584 4.14085C5.89016 3.37148 6.3604 2.69617 6.9908 2.06578C7.46304 1.59353 7.87553 1.27557 8.42463 0.960525C9.8455 0.145298 11.5675 -0.144693 13.2851 0.142C15.1609 0.455115 16.8063 1.45533 17.9382 2.97059C18.6371 3.90615 19.1376 5.06023 19.3772 6.2888C19.3995 6.40287 19.4187 6.49771 19.42 6.49956C19.4212 6.50141 19.5119 6.51956 19.6214 6.5399C21.4879 6.88653 22.9931 7.94873 23.6314 9.36974C23.9529 10.0856 24.0624 10.8484 23.9665 11.7031C23.8074 13.1191 23.016 14.303 21.7462 15.0243C21.0769 15.4045 20.2944 15.6465 19.376 15.7574C19.1709 15.7822 18.9864 15.7842 16.9751 15.7842H14.7965L14.6698 15.7215C14.0444 15.4116 14.0994 14.5446 14.7598 14.3037C14.8419 14.2737 14.8728 14.2731 16.954 14.2647C18.8156 14.2571 19.0868 14.2532 19.2501 14.2312C20.241 14.098 20.9629 13.8047 21.5422 13.2999C22.054 12.8539 22.3747 12.2126 22.451 11.4827C22.4786 11.2186 22.4611 10.7763 22.4143 10.554C22.2589 9.81629 21.833 9.22016 21.124 8.74814C20.4773 8.31755 19.6911 8.05494 18.8193 7.97829C18.4853 7.94893 18.3774 7.9095 18.2173 7.75825C18.0547 7.60461 18.0062 7.4855 17.961 7.12922C17.8545 6.28919 17.6368 5.54167 17.2982 4.85294C17.1476 4.54677 17.0528 4.38336 16.8633 4.10382C16.2899 3.2577 15.5487 2.61028 14.6505 2.17112C14.029 1.86719 13.3902 1.68386 12.6507 1.59722C12.4321 1.57159 11.5635 1.57157 11.3546 1.59719C10.6179 1.68746 9.99981 1.86828 9.42139 2.16271C8.2597 2.75403 7.32397 3.78177 6.85338 4.98323C6.80508 5.10653 6.75404 5.24409 6.73996 5.2889C6.67643 5.4911 6.52794 5.6657 6.34446 5.75395C6.23006 5.80897 6.21226 5.81262 5.75506 5.87475C4.70185 6.01787 3.75324 6.40375 3.01457 6.98953C2.72912 7.2159 2.39946 7.56635 2.19663 7.85903C1.84367 8.36836 1.61099 9.00974 1.54705 9.64956C1.52441 9.87613 1.53699 10.4268 1.56961 10.6366C1.77156 11.9355 2.54576 12.9904 3.78487 13.6552C4.2138 13.8853 4.79885 14.0832 5.32547 14.1763C5.77583 14.2559 5.75324 14.255 7.51046 14.2644C9.12056 14.2731 9.15649 14.2739 9.2381 14.3037C9.44305 14.3785 9.59638 14.5136 9.68743 14.6998C9.87557 15.0845 9.72006 15.5272 9.32866 15.7212L9.20144 15.7842L7.56343 15.7856C6.66252 15.7863 5.89875 15.7847 5.86616 15.782Z" fill="url(#paint0_radial_495_1399)"/>
<defs>
<radialGradient id="paint0_radial_495_1399" cx="0" cy="0" r="1" gradientUnits="userSpaceOnUse" gradientTransform="translate(24 0.0343249) rotate(140.864) scale(30.9418 964.258)">
<stop offset="0.0556543" stop-color="#EA994F"/>
<stop offset="0.322925" stop-color="#E46F90"/>
<stop offset="0.509925" stop-color="#CC6DEB"/>
<stop offset="0.981313" stop-color="#65B9F9"/>
</radialGradient>
</defs>
</svg>
