<svg width="23" height="23" viewBox="0 0 23 23" fill="none" xmlns="http://www.w3.org/2000/svg">
<path d="M19.2266 10.0625H12.9375C12.3656 10.0625 11.8172 9.83532 11.4128 9.43095C11.0084 9.02657 10.7812 8.47812 10.7812 7.90625V1.61719C10.7812 1.56953 10.7623 1.52383 10.7286 1.49013C10.6949 1.45643 10.6492 1.4375 10.6016 1.4375H6.46875C5.70625 1.4375 4.97498 1.7404 4.43582 2.27957C3.89665 2.81874 3.59375 3.55 3.59375 4.3125V18.6875C3.59375 19.45 3.89665 20.1813 4.43582 20.7204C4.97498 21.2596 5.70625 21.5625 6.46875 21.5625H16.5312C17.2937 21.5625 18.025 21.2596 18.5642 20.7204C19.1033 20.1813 19.4062 19.45 19.4062 18.6875V10.2422C19.4062 10.1945 19.3873 10.1488 19.3536 10.1151C19.3199 10.0814 19.2742 10.0625 19.2266 10.0625ZM15.0938 17.25H7.90625C7.71563 17.25 7.53281 17.1743 7.39802 17.0395C7.26323 16.9047 7.1875 16.7219 7.1875 16.5312C7.1875 16.3406 7.26323 16.1578 7.39802 16.023C7.53281 15.8882 7.71563 15.8125 7.90625 15.8125H15.0938C15.2844 15.8125 15.4672 15.8882 15.602 16.023C15.7368 16.1578 15.8125 16.3406 15.8125 16.5312C15.8125 16.7219 15.7368 16.9047 15.602 17.0395C15.4672 17.1743 15.2844 17.25 15.0938 17.25ZM15.0938 13.6562H7.90625C7.71563 13.6562 7.53281 13.5805 7.39802 13.4457C7.26323 13.3109 7.1875 13.1281 7.1875 12.9375C7.1875 12.7469 7.26323 12.5641 7.39802 12.4293C7.53281 12.2945 7.71563 12.2188 7.90625 12.2188H15.0938C15.2844 12.2188 15.4672 12.2945 15.602 12.4293C15.7368 12.5641 15.8125 12.7469 15.8125 12.9375C15.8125 13.1281 15.7368 13.3109 15.602 13.4457C15.4672 13.5805 15.2844 13.6562 15.0938 13.6562Z" fill="#969771"/>
<path d="M18.8321 8.47169L12.3719 2.01148C12.3594 1.99899 12.3434 1.99049 12.326 1.98706C12.3086 1.98362 12.2906 1.9854 12.2743 1.99217C12.2579 1.99894 12.2439 2.0104 12.234 2.0251C12.2241 2.03981 12.2188 2.0571 12.2188 2.07482V7.90613C12.2188 8.09675 12.2945 8.27957 12.4293 8.41436C12.5641 8.54915 12.7469 8.62488 12.9375 8.62488H18.7688C18.7865 8.6248 18.8038 8.61949 18.8185 8.60962C18.8332 8.59974 18.8447 8.58573 18.8515 8.56936C18.8582 8.55299 18.86 8.53499 18.8566 8.51761C18.8531 8.50023 18.8446 8.48426 18.8321 8.47169Z" fill="#969771"/>
</svg>
