<svg width="24" height="24" viewBox="0 0 24 24" fill="none" xmlns="http://www.w3.org/2000/svg">
<path d="M11.8952 22.5596C11.6581 22.5236 11.4297 22.3613 11.325 22.1543C11.2282 21.9628 11.236 22.4377 11.236 16.7785V11.6452L10.3509 12.5278L9.46583 13.4104L9.33395 13.4752C9.20702 13.5375 9.19605 13.5402 9.04196 13.5454C8.91124 13.5499 8.86329 13.5453 8.78068 13.5202C8.54205 13.4477 8.34598 13.2533 8.27282 13.0165C8.23829 12.9048 8.23406 12.7037 8.26389 12.5922C8.31498 12.4012 8.26525 12.455 9.95936 10.7593C11.2336 9.48392 11.5702 9.15475 11.6356 9.11999C11.8606 9.00049 12.1373 9.00049 12.3623 9.11999C12.4804 9.18278 15.615 12.3191 15.6697 12.4293C15.7911 12.674 15.7832 12.9714 15.6496 13.1847C15.5487 13.3457 15.3922 13.467 15.2164 13.5204C15.1316 13.5462 15.0875 13.5503 14.9533 13.5447C14.7994 13.5384 14.7861 13.5352 14.662 13.4743L14.532 13.4104L13.6469 12.5278L12.7618 11.6452V16.7657C12.7618 20.4371 12.7572 21.9084 12.7455 21.9647C12.6941 22.2122 12.5017 22.4277 12.2511 22.5187C12.1583 22.5524 11.9815 22.5727 11.8952 22.5596ZM5.86616 18.782C5.05728 18.715 4.41177 18.5712 3.74443 18.3095C3.13281 18.0697 2.56653 17.7444 2.06651 17.3457C1.83132 17.1582 1.36705 16.6992 1.19811 16.4873C0.517282 15.633 0.133174 14.6891 0.0200049 13.5921C-0.0181069 13.2227 -0.000249449 12.6051 0.0606932 12.1848C0.359993 10.121 1.85675 8.46558 4.11818 7.69719C4.47004 7.57763 4.73717 7.50658 5.14522 7.424L5.4464 7.36305L5.54584 7.14085C5.89016 6.37148 6.3604 5.69617 6.9908 5.06578C7.46304 4.59353 7.87553 4.27557 8.42463 3.96053C9.8455 3.1453 11.5675 2.85531 13.2851 3.142C15.1609 3.45512 16.8063 4.45533 17.9382 5.97059C18.6371 6.90615 19.1376 8.06023 19.3772 9.2888C19.3995 9.40287 19.4187 9.49771 19.42 9.49956C19.4212 9.50141 19.5119 9.51956 19.6214 9.5399C21.4879 9.88653 22.9931 10.9487 23.6314 12.3697C23.9529 13.0856 24.0624 13.8484 23.9665 14.7031C23.8074 16.1191 23.016 17.303 21.7462 18.0243C21.0769 18.4045 20.2944 18.6465 19.376 18.7574C19.1709 18.7822 18.9864 18.7842 16.9751 18.7842H14.7965L14.6698 18.7215C14.0444 18.4116 14.0994 17.5446 14.7598 17.3037C14.8419 17.2737 14.8728 17.2731 16.954 17.2647C18.8156 17.2571 19.0868 17.2532 19.2501 17.2312C20.241 17.098 20.9629 16.8047 21.5422 16.2999C22.054 15.8539 22.3747 15.2126 22.451 14.4827C22.4786 14.2186 22.4611 13.7763 22.4143 13.554C22.2589 12.8163 21.833 12.2202 21.124 11.7481C20.4773 11.3176 19.6911 11.0549 18.8193 10.9783C18.4853 10.9489 18.3774 10.9095 18.2173 10.7582C18.0547 10.6046 18.0062 10.4855 17.961 10.1292C17.8545 9.28919 17.6368 8.54167 17.2982 7.85294C17.1476 7.54677 17.0528 7.38336 16.8633 7.10382C16.2899 6.2577 15.5487 5.61028 14.6505 5.17112C14.029 4.86719 13.3902 4.68386 12.6507 4.59722C12.4321 4.57159 11.5635 4.57157 11.3546 4.59719C10.6179 4.68746 9.99981 4.86828 9.42139 5.16271C8.2597 5.75403 7.32397 6.78177 6.85338 7.98323C6.80508 8.10653 6.75404 8.24409 6.73996 8.2889C6.67643 8.4911 6.52794 8.6657 6.34446 8.75395C6.23006 8.80897 6.21226 8.81262 5.75506 8.87475C4.70185 9.01787 3.75324 9.40375 3.01457 9.98953C2.72912 10.2159 2.39946 10.5663 2.19663 10.859C1.84367 11.3684 1.61099 12.0097 1.54705 12.6496C1.52441 12.8761 1.53699 13.4268 1.56961 13.6366C1.77156 14.9355 2.54576 15.9904 3.78487 16.6552C4.2138 16.8853 4.79885 17.0832 5.32547 17.1763C5.77583 17.2559 5.75324 17.255 7.51046 17.2644C9.12056 17.2731 9.15649 17.2739 9.2381 17.3037C9.44305 17.3785 9.59638 17.5136 9.68743 17.6998C9.87557 18.0845 9.72006 18.5272 9.32866 18.7212L9.20144 18.7842L7.56343 18.7856C6.66252 18.7863 5.89875 18.7847 5.86616 18.782Z" fill="#0372E4"/>
</svg>
