<svg width="24" height="24" viewBox="0 0 24 24" fill="none" xmlns="http://www.w3.org/2000/svg">
<g clip-path="url(#clip0_642_4795)">
<g filter="url(#filter0_d_642_4795)">
<path d="M19.6875 5.25H4.3125C4.00184 5.25 3.75 5.50184 3.75 5.8125V14.4375C3.75 14.7482 4.00184 15 4.3125 15H19.6875C19.9982 15 20.25 14.7482 20.25 14.4375V5.8125C20.25 5.50184 19.9982 5.25 19.6875 5.25Z" fill="url(#paint0_linear_642_4795)"/>
</g>
<g filter="url(#filter1_d_642_4795)">
<path d="M20.25 3H12.75V2.25C12.75 2.05109 12.671 1.86032 12.5303 1.71967C12.3897 1.57902 12.1989 1.5 12 1.5C11.8011 1.5 11.6103 1.57902 11.4697 1.71967C11.329 1.86032 11.25 2.05109 11.25 2.25V3H3.75C3.15345 3.00062 2.58152 3.23787 2.1597 3.6597C1.73787 4.08152 1.50062 4.65345 1.5 5.25V15C1.50062 15.5965 1.73787 16.1685 2.1597 16.5903C2.58152 17.0121 3.15345 17.2494 3.75 17.25H5.75578L4.52906 21.5438C4.49979 21.6391 4.48982 21.7393 4.49973 21.8385C4.50964 21.9377 4.53923 22.0339 4.58678 22.1216C4.63433 22.2092 4.69888 22.2865 4.77665 22.3489C4.85443 22.4113 4.94386 22.4576 5.03973 22.485C5.13559 22.5124 5.23596 22.5205 5.33497 22.5086C5.43398 22.4968 5.52963 22.4654 5.61634 22.4161C5.70305 22.3669 5.77907 22.3009 5.83995 22.2219C5.90084 22.1429 5.94537 22.0526 5.97094 21.9562L7.31578 17.25H11.25V19.5C11.25 19.6989 11.329 19.8897 11.4697 20.0303C11.6103 20.171 11.8011 20.25 12 20.25C12.1989 20.25 12.3897 20.171 12.5303 20.0303C12.671 19.8897 12.75 19.6989 12.75 19.5V17.25H16.6842L18.0291 21.9562C18.0546 22.0526 18.0992 22.1429 18.16 22.2219C18.2209 22.3009 18.297 22.3669 18.3837 22.4161C18.4704 22.4654 18.566 22.4968 18.665 22.5086C18.764 22.5205 18.8644 22.5124 18.9603 22.485C19.0561 22.4576 19.1456 22.4113 19.2233 22.3489C19.3011 22.2865 19.3657 22.2092 19.4132 22.1216C19.4608 22.0339 19.4904 21.9377 19.5003 21.8385C19.5102 21.7393 19.5002 21.6391 19.4709 21.5438L18.2442 17.25H20.25C20.8465 17.2494 21.4185 17.0121 21.8403 16.5903C22.2621 16.1685 22.4994 15.5965 22.5 15V5.25C22.4994 4.65345 22.2621 4.08152 21.8403 3.6597C21.4185 3.23787 20.8465 3.00062 20.25 3ZM21 15C21 15.1989 20.921 15.3897 20.7803 15.5303C20.6397 15.671 20.4489 15.75 20.25 15.75H3.75C3.55109 15.75 3.36032 15.671 3.21967 15.5303C3.07902 15.3897 3 15.1989 3 15V5.25C3 5.05109 3.07902 4.86032 3.21967 4.71967C3.36032 4.57902 3.55109 4.5 3.75 4.5H20.25C20.4489 4.5 20.6397 4.57902 20.7803 4.71967C20.921 4.86032 21 5.05109 21 5.25V15Z" fill="url(#paint1_linear_642_4795)"/>
</g>
</g>
<defs>
<filter id="filter0_d_642_4795" x="-26.25" y="-20.75" width="76.5" height="69.75" filterUnits="userSpaceOnUse" color-interpolation-filters="sRGB">
<feFlood flood-opacity="0" result="BackgroundImageFix"/>
<feColorMatrix in="SourceAlpha" type="matrix" values="0 0 0 0 0 0 0 0 0 0 0 0 0 0 0 0 0 0 127 0" result="hardAlpha"/>
<feOffset dy="4"/>
<feGaussianBlur stdDeviation="15"/>
<feComposite in2="hardAlpha" operator="out"/>
<feColorMatrix type="matrix" values="0 0 0 0 0 0 0 0 0 0 0 0 0 0 0 0 0 0 0.05 0"/>
<feBlend mode="normal" in2="BackgroundImageFix" result="effect1_dropShadow_642_4795"/>
<feBlend mode="normal" in="SourceGraphic" in2="effect1_dropShadow_642_4795" result="shape"/>
</filter>
<filter id="filter1_d_642_4795" x="-28.5" y="-24.5" width="81" height="81.0142" filterUnits="userSpaceOnUse" color-interpolation-filters="sRGB">
<feFlood flood-opacity="0" result="BackgroundImageFix"/>
<feColorMatrix in="SourceAlpha" type="matrix" values="0 0 0 0 0 0 0 0 0 0 0 0 0 0 0 0 0 0 127 0" result="hardAlpha"/>
<feOffset dy="4"/>
<feGaussianBlur stdDeviation="15"/>
<feComposite in2="hardAlpha" operator="out"/>
<feColorMatrix type="matrix" values="0 0 0 0 0 0 0 0 0 0 0 0 0 0 0 0 0 0 0.05 0"/>
<feBlend mode="normal" in2="BackgroundImageFix" result="effect1_dropShadow_642_4795"/>
<feBlend mode="normal" in="SourceGraphic" in2="effect1_dropShadow_642_4795" result="shape"/>
</filter>
<linearGradient id="paint0_linear_642_4795" x1="20.25" y1="5.25" x2="11.7094" y2="19.7033" gradientUnits="userSpaceOnUse">
<stop offset="0.19053" stop-color="#8191C5"/>
<stop offset="0.804871" stop-color="#7FB8BE"/>
</linearGradient>
<linearGradient id="paint1_linear_642_4795" x1="22.5" y1="1.5" x2="1.48607" y2="22.5" gradientUnits="userSpaceOnUse">
<stop offset="0.19053" stop-color="#8191C5"/>
<stop offset="0.804871" stop-color="#7FB8BE"/>
</linearGradient>
<clipPath id="clip0_642_4795">
<rect width="24" height="24" fill="white"/>
</clipPath>
</defs>
</svg>
