<svg width="23" height="23" viewBox="0 0 23 23" fill="none" xmlns="http://www.w3.org/2000/svg">
<g clip-path="url(#clip0_669_126)">
<g filter="url(#filter0_d_669_126)">
<path d="M18.8672 5.03125H4.13281C3.8351 5.03125 3.59375 5.2726 3.59375 5.57031V13.8359C3.59375 14.1337 3.8351 14.375 4.13281 14.375H18.8672C19.1649 14.375 19.4062 14.1337 19.4062 13.8359V5.57031C19.4062 5.2726 19.1649 5.03125 18.8672 5.03125Z" fill="#705B86"/>
</g>
<g filter="url(#filter1_d_669_126)">
<path d="M19.4062 2.875H12.2188V2.15625C12.2188 1.96563 12.143 1.78281 12.0082 1.64802C11.8734 1.51323 11.6906 1.4375 11.5 1.4375C11.3094 1.4375 11.1266 1.51323 10.9918 1.64802C10.857 1.78281 10.7812 1.96563 10.7812 2.15625V2.875H3.59375C3.02206 2.87559 2.47395 3.10296 2.06971 3.50721C1.66546 3.91145 1.43809 4.45956 1.4375 5.03125V14.375C1.43809 14.9467 1.66546 15.4948 2.06971 15.899C2.47395 16.3033 3.02206 16.5307 3.59375 16.5313H5.51596L4.34035 20.6461C4.3123 20.7374 4.30274 20.8335 4.31224 20.9285C4.32174 21.0236 4.3501 21.1159 4.39567 21.1999C4.44124 21.2838 4.5031 21.3579 4.57763 21.4177C4.65216 21.4775 4.73787 21.5219 4.82974 21.5481C4.92161 21.5744 5.0178 21.5821 5.11268 21.5708C5.20756 21.5594 5.29923 21.5293 5.38233 21.4821C5.46542 21.4349 5.53827 21.3717 5.59662 21.296C5.65497 21.2203 5.69765 21.1338 5.72215 21.0414L7.01096 16.5313H10.7812V18.6875C10.7812 18.8781 10.857 19.0609 10.9918 19.1957C11.1266 19.3305 11.3094 19.4063 11.5 19.4063C11.6906 19.4063 11.8734 19.3305 12.0082 19.1957C12.143 19.0609 12.2188 18.8781 12.2188 18.6875V16.5313H15.989L17.2779 21.0414C17.3024 21.1338 17.345 21.2203 17.4034 21.296C17.4617 21.3717 17.5346 21.4349 17.6177 21.4821C17.7008 21.5293 17.7924 21.5594 17.8873 21.5708C17.9822 21.5821 18.0784 21.5744 18.1703 21.5481C18.2621 21.5219 18.3478 21.4775 18.4224 21.4177C18.4969 21.3579 18.5588 21.2838 18.6043 21.1999C18.6499 21.1159 18.6783 21.0236 18.6878 20.9285C18.6973 20.8335 18.6877 20.7374 18.6596 20.6461L17.484 16.5313H19.4062C19.9779 16.5307 20.526 16.3033 20.9303 15.899C21.3345 15.4948 21.5619 14.9467 21.5625 14.375V5.03125C21.5619 4.45956 21.3345 3.91145 20.9303 3.50721C20.526 3.10296 19.9779 2.87559 19.4062 2.875ZM20.125 14.375C20.125 14.5656 20.0493 14.7484 19.9145 14.8832C19.7797 15.018 19.5969 15.0938 19.4062 15.0938H3.59375C3.40313 15.0938 3.22031 15.018 3.08552 14.8832C2.95073 14.7484 2.875 14.5656 2.875 14.375V5.03125C2.875 4.84063 2.95073 4.65781 3.08552 4.52302C3.22031 4.38823 3.40313 4.3125 3.59375 4.3125H19.4062C19.5969 4.3125 19.7797 4.38823 19.9145 4.52302C20.0493 4.65781 20.125 4.84063 20.125 5.03125V14.375Z" fill="#705B86"/>
</g>
</g>
<defs>
<filter id="filter0_d_669_126" x="-25.1562" y="-19.8854" width="73.3125" height="66.8438" filterUnits="userSpaceOnUse" color-interpolation-filters="sRGB">
<feFlood flood-opacity="0" result="BackgroundImageFix"/>
<feColorMatrix in="SourceAlpha" type="matrix" values="0 0 0 0 0 0 0 0 0 0 0 0 0 0 0 0 0 0 127 0" result="hardAlpha"/>
<feOffset dy="3.83333"/>
<feGaussianBlur stdDeviation="14.375"/>
<feComposite in2="hardAlpha" operator="out"/>
<feColorMatrix type="matrix" values="0 0 0 0 0 0 0 0 0 0 0 0 0 0 0 0 0 0 0.05 0"/>
<feBlend mode="normal" in2="BackgroundImageFix" result="effect1_dropShadow_669_126"/>
<feBlend mode="normal" in="SourceGraphic" in2="effect1_dropShadow_669_126" result="shape"/>
</filter>
<filter id="filter1_d_669_126" x="-27.3125" y="-23.4792" width="77.625" height="77.6382" filterUnits="userSpaceOnUse" color-interpolation-filters="sRGB">
<feFlood flood-opacity="0" result="BackgroundImageFix"/>
<feColorMatrix in="SourceAlpha" type="matrix" values="0 0 0 0 0 0 0 0 0 0 0 0 0 0 0 0 0 0 127 0" result="hardAlpha"/>
<feOffset dy="3.83333"/>
<feGaussianBlur stdDeviation="14.375"/>
<feComposite in2="hardAlpha" operator="out"/>
<feColorMatrix type="matrix" values="0 0 0 0 0 0 0 0 0 0 0 0 0 0 0 0 0 0 0.05 0"/>
<feBlend mode="normal" in2="BackgroundImageFix" result="effect1_dropShadow_669_126"/>
<feBlend mode="normal" in="SourceGraphic" in2="effect1_dropShadow_669_126" result="shape"/>
</filter>
<clipPath id="clip0_669_126">
<rect width="23" height="23" fill="white"/>
</clipPath>
</defs>
</svg>
