<svg width="512" height="512" viewBox="0 0 512 512" fill="none" xmlns="http://www.w3.org/2000/svg">
<path d="M420 112H92C85.3726 112 80 117.373 80 124V308C80 314.627 85.3726 320 92 320H420C426.627 320 432 314.627 432 308V124C432 117.373 426.627 112 420 112Z" fill="#705B86"/>
<path d="M432 64H272V48C272 43.7565 270.314 39.6869 267.314 36.6863C264.313 33.6857 260.243 32 256 32C251.757 32 247.687 33.6857 244.686 36.6863C241.686 39.6869 240 43.7565 240 48V64H80C67.2737 64.0132 55.0724 69.0746 46.0735 78.0735C37.0746 87.0724 32.0132 99.2737 32 112V320C32.0132 332.726 37.0746 344.928 46.0735 353.927C55.0724 362.925 67.2737 367.987 80 368H122.79L96.62 459.6C95.9955 461.633 95.7828 463.771 95.9942 465.888C96.2056 468.004 96.837 470.057 97.8514 471.927C98.8658 473.797 100.243 475.446 101.902 476.777C103.561 478.108 105.469 479.095 107.514 479.68C109.559 480.265 111.701 480.437 113.813 480.184C115.925 479.932 117.965 479.261 119.815 478.211C121.665 477.16 123.287 475.752 124.586 474.067C125.885 472.383 126.835 470.456 127.38 468.4L156.07 368H240V416C240 420.243 241.686 424.313 244.686 427.314C247.687 430.314 251.757 432 256 432C260.243 432 264.313 430.314 267.314 427.314C270.314 424.313 272 420.243 272 416V368H355.93L384.62 468.4C385.165 470.456 386.115 472.383 387.414 474.067C388.713 475.752 390.335 477.16 392.185 478.211C394.035 479.261 396.075 479.932 398.187 480.184C400.299 480.437 402.441 480.265 404.486 479.68C406.531 479.095 408.439 478.108 410.098 476.777C411.757 475.446 413.134 473.797 414.149 471.927C415.163 470.057 415.794 468.004 416.006 465.888C416.217 463.771 416.004 461.633 415.38 459.6L389.21 368H432C444.726 367.987 456.928 362.925 465.927 353.927C474.925 344.928 479.987 332.726 480 320V112C479.987 99.2737 474.925 87.0724 465.927 78.0735C456.928 69.0746 444.726 64.0132 432 64ZM448 320C448 324.243 446.314 328.313 443.314 331.314C440.313 334.314 436.243 336 432 336H80C75.7565 336 71.6869 334.314 68.6863 331.314C65.6857 328.313 64 324.243 64 320V112C64 107.757 65.6857 103.687 68.6863 100.686C71.6869 97.6857 75.7565 96 80 96H432C436.243 96 440.313 97.6857 443.314 100.686C446.314 103.687 448 107.757 448 112V320Z" fill="#705B86"/>
</svg>
