<svg width="28" height="28" viewBox="0 0 28 28" fill="none" xmlns="http://www.w3.org/2000/svg">
<g clip-path="url(#clip0_642_4760)">
<g filter="url(#filter0_d_642_4760)">
<path d="M15.3572 14.3361L13.2417 8.8362C13.2099 8.75367 13.1539 8.68269 13.081 8.63263C13.0081 8.58257 12.9218 8.55577 12.8333 8.55577C12.7449 8.55577 12.6585 8.58257 12.5857 8.63263C12.5128 8.68269 12.4567 8.75367 12.425 8.8362L10.3094 14.3361C10.2875 14.3932 10.2537 14.4451 10.2105 14.4884C10.1672 14.5317 10.1153 14.5654 10.0581 14.5874L4.55826 16.7029C4.47573 16.7347 4.40475 16.7907 4.35469 16.8636C4.30463 16.9365 4.27783 17.0228 4.27783 17.1113C4.27783 17.1997 4.30463 17.2861 4.35469 17.359C4.40475 17.4318 4.47573 17.4879 4.55826 17.5196L10.0581 19.6352C10.1153 19.6571 10.1672 19.6909 10.2105 19.7342C10.2537 19.7774 10.2875 19.8293 10.3094 19.8865L12.425 25.3863C12.4567 25.4689 12.5128 25.5399 12.5857 25.5899C12.6585 25.64 12.7449 25.6668 12.8333 25.6668C12.9218 25.6668 13.0081 25.64 13.081 25.5899C13.1539 25.5399 13.2099 25.4689 13.2417 25.3863L15.3572 19.8865C15.3792 19.8293 15.4129 19.7774 15.4562 19.7342C15.4995 19.6909 15.5514 19.6571 15.6085 19.6352L21.1084 17.5196C21.1909 17.4879 21.2619 17.4318 21.312 17.359C21.362 17.2861 21.3888 17.1997 21.3888 17.1113C21.3888 17.0228 21.362 16.9365 21.312 16.8636C21.2619 16.7907 21.1909 16.7347 21.1084 16.7029L15.6085 14.5874C15.5514 14.5654 15.4995 14.5317 15.4562 14.4884C15.4129 14.4451 15.3792 14.3932 15.3572 14.3361ZM8.13815 4.92509C8.03251 4.88446 7.94903 4.80098 7.9084 4.69535L7.37334 3.30418C7.24185 2.9623 6.75815 2.9623 6.62666 3.30418L6.0916 4.69535C6.05097 4.80098 5.96749 4.88446 5.86185 4.92509L4.47068 5.46016C4.1288 5.59165 4.1288 6.07534 4.47068 6.20683L5.86185 6.7419C5.96749 6.78253 6.05097 6.86601 6.0916 6.97165L6.62666 8.36282C6.75815 8.70469 7.24185 8.70469 7.37334 8.36282L7.9084 6.97165C7.94903 6.86601 8.03251 6.78253 8.13815 6.7419L9.52932 6.20683C9.8712 6.07534 9.8712 5.59165 9.52932 5.46016L8.13815 4.92509ZM23.629 7.32308C23.5234 7.28245 23.4399 7.19898 23.3993 7.09336L22.54 4.85954C22.4085 4.51769 21.9248 4.51769 21.7933 4.85954L20.934 7.09336C20.8934 7.19898 20.8099 7.28245 20.7043 7.32308L18.4705 8.18239C18.1286 8.31389 18.1286 8.79755 18.4705 8.92905L20.7043 9.78836C20.8099 9.82899 20.8934 9.91246 20.934 10.0181L21.7933 12.2519C21.9248 12.5937 22.4085 12.5937 22.54 12.2519L23.3993 10.0181C23.4399 9.91246 23.5234 9.82899 23.629 9.78836L25.8628 8.92905C26.2047 8.79755 26.2047 8.31389 25.8628 8.18239L23.629 7.32308Z" fill="url(#paint0_linear_642_4760)"/>
</g>
</g>
<defs>
<filter id="filter0_d_642_4760" x="-25.7852" y="-22.9521" width="81.9043" height="82.6189" filterUnits="userSpaceOnUse" color-interpolation-filters="sRGB">
<feFlood flood-opacity="0" result="BackgroundImageFix"/>
<feColorMatrix in="SourceAlpha" type="matrix" values="0 0 0 0 0 0 0 0 0 0 0 0 0 0 0 0 0 0 127 0" result="hardAlpha"/>
<feOffset dy="4"/>
<feGaussianBlur stdDeviation="15"/>
<feComposite in2="hardAlpha" operator="out"/>
<feColorMatrix type="matrix" values="0 0 0 0 0 0 0 0 0 0 0 0 0 0 0 0 0 0 0.05 0"/>
<feBlend mode="normal" in2="BackgroundImageFix" result="effect1_dropShadow_642_4760"/>
<feBlend mode="normal" in="SourceGraphic" in2="effect1_dropShadow_642_4760" result="shape"/>
</filter>
<linearGradient id="paint0_linear_642_4760" x1="26.8333" y1="2.3335" x2="3.50005" y2="25.6668" gradientUnits="userSpaceOnUse">
<stop offset="0.19053" stop-color="#C59F81"/>
<stop offset="0.790369" stop-color="#A87FBE"/>
</linearGradient>
<clipPath id="clip0_642_4760">
<rect width="28" height="28" fill="white"/>
</clipPath>
</defs>
</svg>
