<svg width="24" height="24" viewBox="0 0 24 24" fill="none" xmlns="http://www.w3.org/2000/svg">
<path d="M13.1633 12.2879L11.35 7.57369C11.3228 7.50295 11.2748 7.44211 11.2123 7.3992C11.1498 7.35629 11.0758 7.33332 11 7.33332C10.9242 7.33332 10.8502 7.35629 10.7877 7.3992C10.7252 7.44211 10.6772 7.50295 10.65 7.57369L8.83667 12.2879C8.81783 12.3368 8.78893 12.3813 8.75182 12.4184C8.71471 12.4555 8.67023 12.4844 8.62125 12.5033L3.90708 14.3166C3.83634 14.3438 3.7755 14.3918 3.73259 14.4543C3.68968 14.5168 3.66671 14.5908 3.66671 14.6666C3.66671 14.7424 3.68968 14.8164 3.73259 14.8789C3.7755 14.9414 3.83634 14.9894 3.90708 15.0166L8.62125 16.8299C8.67023 16.8488 8.71471 16.8777 8.75182 16.9148C8.78893 16.9519 8.81783 16.9964 8.83667 17.0454L10.65 21.7595C10.6772 21.8303 10.7252 21.8911 10.7877 21.934C10.8502 21.9769 10.9242 21.9999 11 21.9999C11.0758 21.9999 11.1498 21.9769 11.2123 21.934C11.2748 21.8911 11.3228 21.8303 11.35 21.7595L13.1633 17.0454C13.1822 16.9964 13.2111 16.9519 13.2482 16.9148C13.2853 16.8777 13.3298 16.8488 13.3788 16.8299L18.0929 15.0166C18.1637 14.9894 18.2245 14.9414 18.2674 14.8789C18.3103 14.8164 18.3333 14.7424 18.3333 14.6666C18.3333 14.5908 18.3103 14.5168 18.2674 14.4543C18.2245 14.3918 18.1637 14.3438 18.0929 14.3166L13.3788 12.5033C13.3298 12.4844 13.2853 12.4555 13.2482 12.4184C13.2111 12.3813 13.1822 12.3368 13.1633 12.2879ZM6.83333 4.16661L6 1.99994L5.16667 4.16661L3 4.99994L5.16667 5.83327L6 7.99994L6.83333 5.83327L9 4.99994L6.83333 4.16661ZM20.1113 6.22202L19 3.33327L17.8888 6.22202L15 7.33327L17.8888 8.44452L19 11.3333L20.1113 8.44452L23 7.33327L20.1113 6.22202Z" fill="#1D1D1F"/>
</svg>
