<svg width="23" height="23" viewBox="0 0 23 23" fill="none" xmlns="http://www.w3.org/2000/svg">
<path d="M16.9384 1.89941H6.22047C5.40858 1.9003 4.63019 2.22322 4.0561 2.79731C3.48201 3.37141 3.15909 4.14979 3.1582 4.96168V18.1325C3.1582 19.7716 4.48695 21.1004 6.12604 21.1004H17.0328C18.6719 21.1004 20.0007 19.7716 20.0007 18.1325V4.96168C19.9998 4.14979 19.6769 3.37141 19.1028 2.79731C18.5287 2.22322 17.7503 1.9003 16.9384 1.89941ZM11.5794 14.9141H7.75161C7.54856 14.9141 7.35384 14.8334 7.21027 14.6898C7.0667 14.5463 6.98604 14.3515 6.98604 14.1485C6.98604 13.9454 7.0667 13.7507 7.21027 13.6071C7.35384 13.4636 7.54856 13.3829 7.75161 13.3829H11.5794C11.7825 13.3829 11.9772 13.4636 12.1208 13.6071C12.2643 13.7507 12.345 13.9454 12.345 14.1485C12.345 14.3515 12.2643 14.5463 12.1208 14.6898C11.9772 14.8334 11.7825 14.9141 11.5794 14.9141ZM15.4073 11.0862H7.75161C7.54856 11.0862 7.35384 11.0056 7.21027 10.862C7.0667 10.7184 6.98604 10.5237 6.98604 10.3207C6.98604 10.1176 7.0667 9.92289 7.21027 9.77931C7.35384 9.63574 7.54856 9.55509 7.75161 9.55509H15.4073C15.6103 9.55509 15.805 9.63574 15.9486 9.77931C16.0922 9.92289 16.1728 10.1176 16.1728 10.3207C16.1728 10.5237 16.0922 10.7184 15.9486 10.862C15.805 11.0056 15.6103 11.0862 15.4073 11.0862ZM15.4073 7.25838H7.75161C7.54856 7.25838 7.35384 7.17773 7.21027 7.03415C7.0667 6.89058 6.98604 6.69586 6.98604 6.49282C6.98604 6.28978 7.0667 6.09505 7.21027 5.95148C7.35384 5.80791 7.54856 5.72725 7.75161 5.72725H15.4073C15.6103 5.72725 15.805 5.80791 15.9486 5.95148C16.0922 6.09505 16.1728 6.28978 16.1728 6.49282C16.1728 6.69586 16.0922 6.89058 15.9486 7.03415C15.805 7.17773 15.6103 7.25838 15.4073 7.25838Z" fill="#516580"/>
</svg>
